<svg width="192" height="192" viewBox="0 0 192 192" fill="none" xmlns="http://www.w3.org/2000/svg">
<g opacity="0.16">
<circle cx="2.88" cy="2.88" r="2.88" fill="white"/>
<circle cx="20.16" cy="2.88" r="2.88" fill="white"/>
<circle cx="37.4401" cy="2.88" r="2.88" fill="white"/>
<circle cx="54.72" cy="2.88" r="2.88" fill="white"/>
<circle cx="72" cy="2.88" r="2.88" fill="white"/>
<circle cx="89.28" cy="2.88" r="2.88" fill="white"/>
<circle cx="106.56" cy="2.88" r="2.88" fill="white"/>
<circle cx="123.84" cy="2.88" r="2.88" fill="white"/>
<circle cx="141.12" cy="2.88" r="2.88" fill="white"/>
<circle cx="158.4" cy="2.88" r="2.88" fill="white"/>
<circle cx="175.68" cy="2.88" r="2.88" fill="white"/>
<g clip-path="url(#clip0_1_2831)">
<circle cx="2.88" cy="20.16" r="2.88" fill="white"/>
<circle cx="20.16" cy="20.16" r="2.88" fill="white"/>
<circle cx="37.4401" cy="20.16" r="2.88" fill="white"/>
<circle cx="54.72" cy="20.16" r="2.88" fill="white"/>
<circle cx="72" cy="20.16" r="2.88" fill="white"/>
<circle cx="89.28" cy="20.16" r="2.88" fill="white"/>
<circle cx="106.56" cy="20.16" r="2.88" fill="white"/>
<circle cx="123.84" cy="20.16" r="2.88" fill="white"/>
<circle cx="141.12" cy="20.16" r="2.88" fill="white"/>
<circle cx="158.4" cy="20.16" r="2.88" fill="white"/>
<circle cx="175.68" cy="20.16" r="2.88" fill="white"/>
</g>
<g clip-path="url(#clip1_1_2831)">
<circle cx="2.88" cy="37.44" r="2.88" fill="white"/>
<circle cx="20.16" cy="37.44" r="2.88" fill="white"/>
<circle cx="37.4401" cy="37.44" r="2.88" fill="white"/>
<circle cx="54.72" cy="37.44" r="2.88" fill="white"/>
<circle cx="72" cy="37.44" r="2.88" fill="white"/>
<circle cx="89.28" cy="37.44" r="2.88" fill="white"/>
<circle cx="106.56" cy="37.44" r="2.88" fill="white"/>
<circle cx="123.84" cy="37.44" r="2.88" fill="white"/>
<circle cx="141.12" cy="37.44" r="2.88" fill="white"/>
<circle cx="158.4" cy="37.44" r="2.88" fill="white"/>
<circle cx="175.68" cy="37.44" r="2.88" fill="white"/>
</g>
<g clip-path="url(#clip2_1_2831)">
<circle cx="2.88" cy="54.72" r="2.88" fill="white"/>
<circle cx="20.16" cy="54.72" r="2.88" fill="white"/>
<circle cx="37.4401" cy="54.72" r="2.88" fill="white"/>
<circle cx="54.72" cy="54.72" r="2.88" fill="white"/>
<circle cx="72" cy="54.72" r="2.88" fill="white"/>
<circle cx="89.28" cy="54.72" r="2.88" fill="white"/>
<circle cx="106.56" cy="54.72" r="2.88" fill="white"/>
<circle cx="123.84" cy="54.72" r="2.88" fill="white"/>
<circle cx="141.12" cy="54.72" r="2.88" fill="white"/>
<circle cx="158.4" cy="54.72" r="2.88" fill="white"/>
<circle cx="175.68" cy="54.72" r="2.88" fill="white"/>
</g>
<g clip-path="url(#clip3_1_2831)">
<circle cx="2.88" cy="72" r="2.88" fill="white"/>
<circle cx="20.16" cy="72" r="2.88" fill="white"/>
<circle cx="37.4401" cy="72" r="2.88" fill="white"/>
<circle cx="54.72" cy="72" r="2.88" fill="white"/>
<circle cx="72" cy="72" r="2.88" fill="white"/>
<circle cx="89.28" cy="72" r="2.88" fill="white"/>
<circle cx="106.56" cy="72" r="2.88" fill="white"/>
<circle cx="123.84" cy="72" r="2.88" fill="white"/>
<circle cx="141.12" cy="72" r="2.88" fill="white"/>
<circle cx="158.4" cy="72" r="2.88" fill="white"/>
<circle cx="175.68" cy="72" r="2.88" fill="white"/>
</g>
<g clip-path="url(#clip4_1_2831)">
<circle cx="2.88" cy="89.28" r="2.88" fill="white"/>
<circle cx="20.16" cy="89.28" r="2.88" fill="white"/>
<circle cx="37.4401" cy="89.28" r="2.88" fill="white"/>
<circle cx="54.72" cy="89.28" r="2.88" fill="white"/>
<circle cx="72" cy="89.28" r="2.88" fill="white"/>
<circle cx="89.28" cy="89.28" r="2.88" fill="white"/>
<circle cx="106.56" cy="89.28" r="2.88" fill="white"/>
<circle cx="123.84" cy="89.28" r="2.88" fill="white"/>
<circle cx="141.12" cy="89.28" r="2.88" fill="white"/>
<circle cx="158.4" cy="89.28" r="2.88" fill="white"/>
<circle cx="175.68" cy="89.28" r="2.88" fill="white"/>
</g>
<g clip-path="url(#clip5_1_2831)">
<circle cx="2.88" cy="106.56" r="2.88" fill="white"/>
<circle cx="20.16" cy="106.56" r="2.88" fill="white"/>
<circle cx="37.4401" cy="106.56" r="2.88" fill="white"/>
<circle cx="54.72" cy="106.56" r="2.88" fill="white"/>
<circle cx="72" cy="106.56" r="2.88" fill="white"/>
<circle cx="89.28" cy="106.56" r="2.88" fill="white"/>
<circle cx="106.56" cy="106.56" r="2.88" fill="white"/>
<circle cx="123.84" cy="106.56" r="2.88" fill="white"/>
<circle cx="141.12" cy="106.56" r="2.88" fill="white"/>
<circle cx="158.4" cy="106.56" r="2.88" fill="white"/>
<circle cx="175.68" cy="106.56" r="2.88" fill="white"/>
</g>
<g clip-path="url(#clip6_1_2831)">
<circle cx="2.88" cy="123.84" r="2.88" fill="white"/>
<circle cx="20.16" cy="123.84" r="2.88" fill="white"/>
<circle cx="37.4401" cy="123.84" r="2.88" fill="white"/>
<circle cx="54.72" cy="123.84" r="2.88" fill="white"/>
<circle cx="72" cy="123.84" r="2.88" fill="white"/>
<circle cx="89.28" cy="123.84" r="2.88" fill="white"/>
<circle cx="106.56" cy="123.84" r="2.88" fill="white"/>
<circle cx="123.84" cy="123.84" r="2.88" fill="white"/>
<circle cx="141.12" cy="123.84" r="2.88" fill="white"/>
<circle cx="158.4" cy="123.84" r="2.88" fill="white"/>
<circle cx="175.68" cy="123.84" r="2.88" fill="white"/>
</g>
<g clip-path="url(#clip7_1_2831)">
<circle cx="2.88" cy="141.12" r="2.88" fill="white"/>
<circle cx="20.16" cy="141.12" r="2.88" fill="white"/>
<circle cx="37.4401" cy="141.12" r="2.88" fill="white"/>
<circle cx="54.72" cy="141.12" r="2.88" fill="white"/>
<circle cx="72" cy="141.12" r="2.88" fill="white"/>
<circle cx="89.28" cy="141.12" r="2.88" fill="white"/>
<circle cx="106.56" cy="141.12" r="2.88" fill="white"/>
<circle cx="123.84" cy="141.12" r="2.88" fill="white"/>
<circle cx="141.12" cy="141.12" r="2.88" fill="white"/>
<circle cx="158.4" cy="141.12" r="2.88" fill="white"/>
<circle cx="175.68" cy="141.12" r="2.88" fill="white"/>
</g>
<g clip-path="url(#clip8_1_2831)">
<circle cx="2.88" cy="158.4" r="2.88" fill="white"/>
<circle cx="20.16" cy="158.4" r="2.88" fill="white"/>
<circle cx="37.4401" cy="158.4" r="2.88" fill="white"/>
<circle cx="54.72" cy="158.4" r="2.88" fill="white"/>
<circle cx="72" cy="158.4" r="2.88" fill="white"/>
<circle cx="89.28" cy="158.4" r="2.88" fill="white"/>
<circle cx="106.56" cy="158.4" r="2.88" fill="white"/>
<circle cx="123.84" cy="158.4" r="2.88" fill="white"/>
<circle cx="141.12" cy="158.4" r="2.88" fill="white"/>
<circle cx="158.4" cy="158.4" r="2.88" fill="white"/>
<circle cx="175.68" cy="158.4" r="2.88" fill="white"/>
</g>
<g clip-path="url(#clip9_1_2831)">
<circle cx="2.88" cy="175.68" r="2.88" fill="white"/>
<circle cx="20.16" cy="175.68" r="2.88" fill="white"/>
<circle cx="37.4401" cy="175.68" r="2.88" fill="white"/>
<circle cx="54.72" cy="175.68" r="2.88" fill="white"/>
<circle cx="72" cy="175.68" r="2.88" fill="white"/>
<circle cx="89.28" cy="175.68" r="2.88" fill="white"/>
<circle cx="106.56" cy="175.68" r="2.88" fill="white"/>
<circle cx="123.84" cy="175.68" r="2.88" fill="white"/>
<circle cx="141.12" cy="175.68" r="2.88" fill="white"/>
<circle cx="158.4" cy="175.68" r="2.88" fill="white"/>
<circle cx="175.68" cy="175.68" r="2.88" fill="white"/>
</g>
</g>
<defs>
<clipPath id="clip0_1_2831">
<rect width="192" height="17.28" fill="white" transform="translate(0 17.28)"/>
</clipPath>
<clipPath id="clip1_1_2831">
<rect width="192" height="17.28" fill="white" transform="translate(0 34.56)"/>
</clipPath>
<clipPath id="clip2_1_2831">
<rect width="192" height="17.28" fill="white" transform="translate(0 51.84)"/>
</clipPath>
<clipPath id="clip3_1_2831">
<rect width="192" height="17.28" fill="white" transform="translate(0 69.12)"/>
</clipPath>
<clipPath id="clip4_1_2831">
<rect width="192" height="17.28" fill="white" transform="translate(0 86.4)"/>
</clipPath>
<clipPath id="clip5_1_2831">
<rect width="192" height="17.28" fill="white" transform="translate(0 103.68)"/>
</clipPath>
<clipPath id="clip6_1_2831">
<rect width="192" height="17.28" fill="white" transform="translate(0 120.96)"/>
</clipPath>
<clipPath id="clip7_1_2831">
<rect width="192" height="17.28" fill="white" transform="translate(0 138.24)"/>
</clipPath>
<clipPath id="clip8_1_2831">
<rect width="192" height="17.28" fill="white" transform="translate(0 155.52)"/>
</clipPath>
<clipPath id="clip9_1_2831">
<rect width="192" height="17.28" fill="white" transform="translate(0 172.8)"/>
</clipPath>
</defs>
</svg>
