<svg width="20" height="20" viewBox="0 0 20 20" fill="none" xmlns="http://www.w3.org/2000/svg">
<g id="vuesax/bold/star">
<g id="star">
<path id="Vector" d="M4.78335 13.3333C4.87501 12.925 4.70835 12.3417 4.41668 12.05L2.39168 10.025C1.75835 9.39167 1.50835 8.71667 1.69168 8.13334C1.88335 7.55 2.47502 7.15 3.35835 7L5.95835 6.56667C6.33335 6.50001 6.79168 6.16667 6.96668 5.825L8.40001 2.95001C8.81668 2.12501 9.38335 1.66667 10 1.66667C10.6167 1.66667 11.1833 2.12501 11.6 2.95001L13.0333 5.825C13.1417 6.04167 13.3667 6.25001 13.6083 6.39167L4.63335 15.3667C4.51668 15.4833 4.31668 15.375 4.35001 15.2083L4.78335 13.3333Z" fill="#6366F1"/>
<path id="Vector_2" d="M15.5833 12.05C15.2833 12.35 15.1166 12.925 15.2166 13.3333L15.7916 15.8417C16.0333 16.8833 15.8833 17.6667 15.3666 18.0417C15.1583 18.1917 14.9083 18.2667 14.6166 18.2667C14.1916 18.2667 13.6916 18.1083 13.1416 17.7833L10.7 16.3333C10.3166 16.1083 9.68331 16.1083 9.29998 16.3333L6.85831 17.7833C5.93331 18.325 5.14165 18.4167 4.63331 18.0417C4.44165 17.9 4.29998 17.7083 4.20831 17.4583L14.3416 7.32499C14.725 6.94165 15.2666 6.76665 15.7916 6.85832L16.6333 6.99999C17.5166 7.14999 18.1083 7.54999 18.3 8.13332C18.4833 8.71665 18.2333 9.39165 17.6 10.025L15.5833 12.05Z" fill="#6366F1"/>
</g>
</g>
</svg>
